<!-- <svg xmlns="http://www.w3.org/2000/svg" viewBox="0 0 1440 320"><path fill="#311169" fill-opacity="1" d="M0,96L48,133.3C96,171,192,245,288,261.3C384,277,480,235,576,197.3C672,160,768,128,864,117.3C960,107,1056,117,1152,106.7C1248,96,1344,64,1392,48L1440,32L1440,320L1392,320C1344,320,1248,320,1152,320C1056,320,960,320,864,320C768,320,672,320,576,320C480,320,384,320,288,320C192,320,96,320,48,320L0,320Z"></path></svg> -->
<svg xmlns="http://www.w3.org/2000/svg" viewBox="0 0 1440 320"><path fill="#000" fill-opacity="1" d="M0,160L48,170.7C96,181,192,203,288,181.3C384,160,480,96,576,106.7C672,117,768,203,864,202.7C960,203,1056,117,1152,80C1248,43,1344,53,1392,58.7L1440,64L1440,320L1392,320C1344,320,1248,320,1152,320C1056,320,960,320,864,320C768,320,672,320,576,320C480,320,384,320,288,320C192,320,96,320,48,320L0,320Z"></path></svg>